<svg xmlns="http://www.w3.org/2000/svg" width="128" height="67" style=""><rect id="backgroundrect" width="100%" height="100%" x="0" y="0" fill="none" stroke="none" class="" style=""/><g class="currentLayer" style=""><title>Layer 1</title><path fill="#00618A" d="M0,60.73122774708271 h4.242 V43.98422774708271 l6.566,14.598 c0.773,1.77 1.832,2.391 3.914,2.391 s3.098,-0.6210000000000166 3.871,-2.391 l6.566,-14.598 v16.746 h4.242 V44.01222774708273 c0,-1.633 -0.6520000000000249,-2.422 -2,-2.8280000000000003 c-3.223,-1.004 -5.383,-0.137 -6.363,2.039 l-6.441,14.41 l-6.238,-14.41 c-0.937,-2.176 -3.14,-3.043 -6.359,-2.039 c-1.348,0.406 -2,1.195 -2,2.8280000000000003 zM32.93,47.09822774708273 h4.238 v9.227 c-0.03900000000000011,0.5 0.16000000000000394,1.6760000000000006 2.484,1.715 h9.223 V47.05122774708271 h4.25 c0.02000000000000035,0 -0.008000000000000076,14.984 -0.008000000000000076,15.047 c0.023000000000001238,3.6950000000000003 -4.582,4.496 -6.707,4.559 H33.02 v-2.8520000000000003 l13.414,-0.004000000000000063 c2.73,-0.2850000000000003 2.406,-1.645 2.406,-2.098 v-1.113 h-9.012 c-4.195,-0.03900000000000011 -6.863,-1.871 -6.898,-3.977 c-0.004000000000000063,-0.19100000000000344 0.09000000000000423,-9.422 0,-9.516 zm0,0 " id="svg_1" class=""/><path fill="#E48E00" d="M56.391,60.73122774708271 h12.195 c1.4260000000000002,0 2.813,-0.3010000000000003 3.914,-0.8160000000000006 c1.836,-0.8400000000000006 2.73,-1.984 2.73,-3.48 v-3.098 c0,-1.223 -1.016,-2.367 -3.016,-3.125 c-1.059,-0.4100000000000003 -2.367,-0.6250000000000216 -3.629,-0.6250000000000216 h-5.141 c-1.711,0 -2.527,-0.516 -2.73,-1.6560000000000001 c-0.03900000000000011,-0.137 -0.03900000000000011,-0.2460000000000004 -0.03900000000000011,-0.3830000000000114 V45.61822774708273 c0,-0.10900000000000012 0,-0.21900000000000044 0.03900000000000011,-0.3550000000000003 c0.203,-0.8670000000000126 0.6520000000000249,-1.113 2.16,-1.25 l0.4100000000000003,-0.02700000000000127 h12.109 v-2.824 H63.488 c-1.711,0 -2.609,0.10900000000000012 -3.426,0.3520000000000003 c-2.527,0.789 -3.629,2.039 -3.629,4.215 v2.473 c0,1.9020000000000001 2.16,3.535 5.789,3.914 l1.223,0.05500000000000011 h4.406 c0.16400000000000645,0 0.32400000000001183,0 0.44900000000001183,0.02700000000000127 c1.344,0.10900000000000012 1.9140000000000001,0.3550000000000003 2.324,0.8440000000000006 c0.21100000000000024,0.19500000000000642 0.3320000000000127,0.4730000000000003 0.32400000000001183,0.7580000000000225 v2.477 c0,0.2970000000000003 -0.203,0.6800000000000286 -0.6090000000000036,1.004 c-0.3670000000000003,0.32800000000001234 -0.98,0.543 -1.7930000000000001,0.5980000000000006 l-0.44900000000001183,0.02700000000000127 H56.391 zm45.297,-4.922 c0,2.91 2.164,4.539 6.523,4.867 l1.227,0.05500000000000011 h11.051 v-2.8280000000000003 h-11.133 c-2.488,0 -3.426,-0.6250000000000216 -3.426,-2.121 V41.15622774708271 h-4.238 V55.80822774708272 zm-23.75,0.14800000000000021 V45.875227747082704 c0,-2.559 1.8010000000000002,-4.113 5.355,-4.602 a7.976,7.976 0 0 1 1.145,-0.08200000000000122 h8.047 c0.4100000000000003,0 0.777,0.02700000000000127 1.188,0.08200000000000122 c3.555,0.4880000000000003 5.352,2.043 5.352,4.602 v10.082 c0,2.078 -0.762000000000023,3.188 -2.523,3.914 l4.18,3.77 h-4.926 l-3.379,-3.051 l-3.402,0.2150000000000004 H84.44 a9.23,9.23 0 0 1 -2.492,-0.3520000000000003 c-2.6990000000000007,-0.7340000000000036 -4.008,-2.152 -4.008,-4.496 zm4.578,-0.2460000000000004 c0,0.137 0.03900000000000011,0.273 0.08200000000000122,0.4380000000000078 c0.2460000000000004,1.172 1.348,1.824 3.023,1.824 h3.8520000000000003 l-3.539,-3.195 h4.926 l3.086,2.789 c0.5700000000000006,-0.3050000000000003 0.9410000000000006,-0.7660000000000236 1.074,-1.363 c0.03900000000000011,-0.137 0.03900000000000011,-0.273 0.03900000000000011,-0.4100000000000003 v-9.668 c0,-0.10900000000000012 0,-0.2460000000000004 -0.03900000000000011,-0.3830000000000114 c-0.2460000000000004,-1.09 -1.348,-1.715 -2.984,-1.715 h-6.414 c-1.879,0 -3.105,0.8160000000000006 -3.105,2.098 zm0,0 " id="svg_2" class=""/><path fill="#00618A" d="M124.219,36.46522774708273 c-2.605,-0.07 -4.598,0.17200000000000001 -6.301,0.8910000000000236 c-0.4840000000000003,0.203 -1.258,0.2070000000000002 -1.336,0.8130000000000006 c0.266,0.281 0.3090000000000033,0.6990000000000306 0.52,1.039 c0.406,0.6600000000000257 1.094,1.5390000000000001 1.707,2 l2.074,1.484 c1.2730000000000001,0.777 2.6990000000000007,1.223 3.93,2 c0.7230000000000006,0.461 1.441,1.039 2.148,1.5590000000000002 c0.348000000000015,0.254 0.5820000000000006,0.6560000000000251 1.039,0.8160000000000006 v-0.07400000000000002 c-0.23800000000000004,-0.3050000000000003 -0.3010000000000003,-0.7230000000000006 -0.52,-1.039 l-0.9650000000000006,-0.9650000000000006 c-0.9410000000000006,-1.25 -2.137,-2.348 -3.41,-3.262 c-1.016,-0.7270000000000006 -3.281,-1.711 -3.707,-2.891 l-0.07400000000000002,-0.07400000000000002 c0.7190000000000006,-0.07800000000000012 1.5630000000000002,-0.34000000000001385 2.223,-0.516 c1.117,-0.3010000000000003 2.113,-0.22300000000000444 3.262,-0.52 l1.5590000000000002,-0.44900000000001183 v-0.2930000000000003 c-0.5820000000000006,-0.5980000000000006 -0.996,-1.387 -1.633,-1.9300000000000002 c-1.6560000000000001,-1.4100000000000001 -3.469,-2.824 -5.336,-4.004 c-1.035,-0.6520000000000249 -2.3120000000000003,-1.074 -3.41,-1.629 c-0.3670000000000003,-0.18700000000000044 -1.016,-0.281 -1.262,-0.5940000000000006 c-0.5740000000000006,-0.7340000000000036 -0.887000000000023,-1.6640000000000001 -1.332,-2.52 l-2.668,-5.633 c-0.562,-1.2850000000000001 -0.93,-2.555 -1.633,-3.707 c-3.363,-5.535 -6.9879999999999995,-8.875 -12.602,-12.156 c-1.191,-0.6990000000000306 -2.633,-0.973 -4.148,-1.332 l-2.449,-0.14800000000000021 c-0.4960000000000028,-0.21100000000000024 -1.012,-0.8200000000000006 -1.48,-1.113 c-1.859,-1.176 -6.6290000000000004,-3.73 -8.008,-0.3710000000000028 c-0.8670000000000126,2.121 1.3010000000000002,4.191 2.078,5.266 c0.543,0.7540000000000223 1.242,1.598 1.629,2.4450000000000003 c0.258,0.555 0.3010000000000003,1.113 0.52,1.703 c0.539,1.453 1.008,3.031 1.707,4.375 c0.3520000000000003,0.6800000000000286 0.7380000000000076,1.395 1.184,2 c0.273,0.3710000000000028 0.7420000000000126,0.539 0.8160000000000006,1.113 c-0.457,0.6410000000000236 -0.4840000000000003,1.633 -0.7420000000000126,2.4450000000000003 c-1.1600000000000001,3.652 -0.7230000000000006,8.191 0.9650000000000006,10.898 c0.516,0.8280000000000006 1.734,2.609 3.41,1.9260000000000002 c1.465,-0.5980000000000006 1.137,-2.4450000000000003 1.5550000000000002,-4.078 c0.09800000000000578,-0.3670000000000003 0.03900000000000011,-0.6410000000000236 0.22300000000000444,-0.887000000000023 v0.07400000000000002 l1.336,2.668 c0.988,1.59 2.738,3.25 4.223,4.371 c0.773,0.5820000000000006 1.379,1.59 2.375,1.9300000000000002 V38.018227747082705 h-0.07400000000000002 c-0.19500000000000642,-0.2970000000000003 -0.4960000000000028,-0.4220000000000003 -0.7420000000000126,-0.6640000000000262 c-0.5820000000000006,-0.5700000000000006 -1.227,-1.2770000000000001 -1.703,-1.9300000000000002 c-1.352,-1.832 -2.547,-3.84 -3.633,-5.93 c-0.52,-0.996 -0.973,-2.098 -1.4100000000000001,-3.113 c-0.16800000000000698,-0.3910000000000124 -0.16400000000000645,-0.984 -0.516,-1.184 c-0.4800000000000003,0.7420000000000126 -1.187,1.344 -1.5590000000000002,2.223 c-0.5940000000000006,1.4020000000000001 -0.6680000000000268,3.117 -0.8910000000000236,4.891 l-0.14800000000000021,0.07400000000000002 c-1.031,-0.25 -1.395,-1.312 -1.7770000000000001,-2.223 c-0.973,-2.305 -1.1520000000000001,-6.02 -0.2970000000000003,-8.672 c0.21900000000000044,-0.6870000000000288 1.219,-2.8520000000000003 0.8130000000000006,-3.484 c-0.19100000000000344,-0.6330000000000225 -0.8280000000000006,-1 -1.184,-1.484 a11.7,11.7 0 0 1 -1.187,-2.074 c-0.793,-1.8010000000000002 -1.1640000000000001,-3.816 -2,-5.633 c-0.3980000000000132,-0.8710000000000166 -1.074,-1.75 -1.629,-2.523 c-0.6170000000000126,-0.8550000000000006 -1.3050000000000002,-1.484 -1.7810000000000001,-2.52 c-0.16800000000000698,-0.3670000000000003 -0.3980000000000132,-0.9570000000000006 -0.14800000000000021,-1.336 c0.07800000000000012,-0.254 0.19500000000000642,-0.3590000000000003 0.44500000000001133,-0.44100000000001116 c0.4300000000000003,-0.3320000000000127 1.629,0.10900000000000012 2.074,0.2930000000000003 c1.191,0.4960000000000028 2.184,0.9650000000000006 3.191,1.633 c0.4800000000000003,0.32000000000001133 0.9690000000000006,0.9410000000000006 1.5550000000000002,1.113 h0.6680000000000268 c1.043,0.23800000000000004 2.211,0.07 3.188,0.3670000000000003 c1.723,0.523 3.27,1.34 4.668,2.227 c4.273,2.6950000000000003 7.766,6.535 10.156,11.117 c0.3870000000000119,0.7380000000000076 0.551,1.441 0.8910000000000236,2.223 c0.6840000000000288,1.578 1.5430000000000001,3.203 2.223,4.746 s1.34,3.094 2.297,4.375 c0.504,0.6720000000000274 2.453,1.031 3.3360000000000003,1.4060000000000001 c0.6210000000000166,0.262 1.637,0.535 2.223,0.8910000000000236 c1.125,0.6760000000000279 2.211,1.48 3.266,2.223 c0.523,0.3750000000000073 2.141,1.188 2.223,1.855 zM91.082,8.22322774708271 a5.26,5.26 0 0 0 -1.332,0.14800000000000021 v0.07400000000000002 h0.07400000000000002 c0.258,0.535 0.7150000000000006,0.8790000000000223 1.035,1.336 l0.7420000000000126,1.5550000000000002 l0.07400000000000002,-0.07 c0.461,-0.32400000000001183 0.6680000000000268,-0.8440000000000006 0.6680000000000268,-1.633 c-0.18700000000000044,-0.19500000000000642 -0.21100000000000024,-0.4370000000000068 -0.3710000000000028,-0.6680000000000268 c-0.21100000000000024,-0.3090000000000033 -0.6210000000000166,-0.4800000000000003 -0.8910000000000236,-0.7420000000000126 zm0,0 " id="svg_3" class=""/></g></svg>